<svg xmlns="http://www.w3.org/2000/svg" xmlns:xlink="http://www.w3.org/1999/xlink" width="1500" zoomAndPan="magnify" viewBox="0 0 1125 1124.99995" height="1500" preserveAspectRatio="xMidYMid meet" version="1.0"><defs><clipPath id="88f6992b88"><path d="M 676 0 L 1124.996094 0 L 1124.996094 448 L 676 448 Z M 676 0 " clip-rule="nonzero"/></clipPath><clipPath id="49a2eba8d7"><path d="M 619 215 L 1124.996094 215 L 1124.996094 849.539062 L 619 849.539062 Z M 619 215 " clip-rule="nonzero"/></clipPath><clipPath id="d4e5cac6b7"><path d="M 928 178 L 1124.996094 178 L 1124.996094 379 L 928 379 Z M 928 178 " clip-rule="nonzero"/></clipPath></defs><g clip-path="url(#88f6992b88)"><path fill="#8c52ff" d="M 676.960938 0 L 881.285156 0 L 1124.046875 242.761719 L 1124.046875 447.085938 Z M 676.960938 0 " fill-opacity="1" fill-rule="nonzero"/></g><g clip-path="url(#49a2eba8d7)"><path fill="#5e17eb" d="M 619.296875 344.789062 L 711.398438 252.6875 L 729.203125 234.902344 L 733.550781 230.515625 L 748.554688 215.550781 L 1124.046875 591.042969 L 1124.046875 849.539062 Z M 619.296875 344.789062 " fill-opacity="1" fill-rule="nonzero"/></g><path fill="#004aad" d="M 458.707031 0 L 815.5 0 L 1093.140625 277.664062 L 1062.582031 308.222656 L 1058.199219 312.585938 L 1023.882812 346.921875 L 951.902344 418.902344 L 936.917969 433.867188 L 932.554688 438.25 L 914.746094 456.058594 L 711.398438 252.6875 Z M 458.707031 0 " fill-opacity="1" fill-rule="nonzero"/><g clip-path="url(#d4e5cac6b7)"><path fill="#ffffff" d="M 928.980469 183.371094 L 933.324219 178.984375 L 1124.046875 369.683594 L 1124.046875 378.433594 L 1058.199219 312.585938 Z M 928.980469 183.371094 " fill-opacity="1" fill-rule="nonzero"/></g><path fill="#8c52ff" d="M 667.277344 208.585938 L 458.707031 0 L 600.859375 0 L 738.363281 137.5 L 689.449219 186.394531 L 685.082031 190.78125 Z M 667.277344 208.585938 " fill-opacity="1" fill-rule="nonzero"/><path fill="#ffffff" d="M 494.300781 0 L 503.054688 0 L 689.449219 186.394531 L 733.550781 230.515625 L 936.917969 433.867188 L 1003.089844 500.039062 L 998.726562 504.425781 Z M 494.300781 0 " fill-opacity="1" fill-rule="nonzero"/></svg>