<svg xmlns="http://www.w3.org/2000/svg" xmlns:xlink="http://www.w3.org/1999/xlink" width="1500" zoomAndPan="magnify" viewBox="0 0 1125 1124.99995" height="1500" preserveAspectRatio="xMidYMid meet" version="1.0"><defs><clipPath id="97d0f6a88c"><path d="M 0 662 L 464 662 L 464 1124.734375 L 0 1124.734375 Z M 0 662 " clip-rule="nonzero"/></clipPath><clipPath id="249dae935a"><path d="M 0 246.484375 L 523 246.484375 L 523 903 L 0 903 Z M 0 246.484375 " clip-rule="nonzero"/></clipPath><clipPath id="1e2445bf2a"><path d="M 32 653 L 690 653 L 690 1124.734375 L 32 1124.734375 Z M 32 653 " clip-rule="nonzero"/></clipPath><clipPath id="bbe41632c7"><path d="M 399 909 L 690 909 L 690 1124.734375 L 399 1124.734375 Z M 399 909 " clip-rule="nonzero"/></clipPath><clipPath id="7310cb78a3"><path d="M 126 603 L 653 603 L 653 1124.734375 L 126 1124.734375 Z M 126 603 " clip-rule="nonzero"/></clipPath></defs><g clip-path="url(#97d0f6a88c)"><path fill="#8c52ff" d="M 463.3125 1124.992188 L 252.023438 1124.992188 L 0.984375 873.953125 L 0.984375 662.660156 Z M 463.3125 1124.992188 " fill-opacity="1" fill-rule="nonzero"/></g><g clip-path="url(#249dae935a)"><path fill="#5e17eb" d="M 522.945312 768.445312 L 427.703125 863.683594 L 409.289062 882.078125 L 404.796875 886.613281 L 389.277344 902.089844 L 0.984375 513.792969 L 0.984375 246.484375 Z M 522.945312 768.445312 " fill-opacity="1" fill-rule="nonzero"/></g><g clip-path="url(#1e2445bf2a)"><path fill="#004aad" d="M 689.007812 1124.992188 L 320.050781 1124.992188 L 32.941406 837.859375 L 64.542969 806.257812 L 69.078125 801.746094 L 104.5625 766.238281 L 178.996094 691.804688 L 194.492188 676.332031 L 199.003906 671.796875 L 217.417969 653.378906 L 427.703125 863.683594 Z M 689.007812 1124.992188 " fill-opacity="1" fill-rule="nonzero"/></g><path fill="#ffffff" d="M 202.699219 935.367188 L 198.207031 939.902344 L 0.984375 742.703125 L 0.984375 733.652344 Z M 202.699219 935.367188 " fill-opacity="1" fill-rule="nonzero"/><g clip-path="url(#bbe41632c7)"><path fill="#8c52ff" d="M 473.328125 909.289062 L 689.007812 1124.992188 L 542.011719 1124.992188 L 399.820312 982.800781 L 450.402344 932.238281 L 454.914062 927.703125 Z M 473.328125 909.289062 " fill-opacity="1" fill-rule="nonzero"/></g><g clip-path="url(#7310cb78a3)"><path fill="#ffffff" d="M 652.203125 1124.992188 L 643.152344 1124.992188 L 450.402344 932.238281 L 404.796875 886.613281 L 194.492188 676.332031 L 126.0625 607.902344 L 130.578125 603.367188 Z M 652.203125 1124.992188 " fill-opacity="1" fill-rule="nonzero"/></g></svg>