<svg xmlns="http://www.w3.org/2000/svg" xmlns:xlink="http://www.w3.org/1999/xlink" width="1500" zoomAndPan="magnify" viewBox="0 0 1125 1124.99995" height="1500" preserveAspectRatio="xMidYMid meet" version="1.0"><defs><clipPath id="24e69d99ae"><path d="M 92.222656 158.59375 L 1032.722656 158.59375 L 1032.722656 966.34375 L 92.222656 966.34375 Z M 92.222656 158.59375 " clip-rule="nonzero"/></clipPath></defs><g clip-path="url(#24e69d99ae)"><path fill="#5e17eb" d="M 384.519531 438.359375 C 384.519531 420.941406 398.769531 406.691406 416.1875 406.691406 C 433.605469 406.691406 447.855469 420.941406 447.855469 438.359375 C 447.855469 455.773438 433.605469 470.027344 416.1875 470.027344 C 398.769531 470.027344 384.519531 456.09375 384.519531 438.359375 Z M 384.519531 686.636719 C 384.519531 669.21875 398.769531 654.96875 416.1875 654.96875 C 433.605469 654.96875 447.855469 669.21875 447.855469 686.636719 C 447.855469 704.054688 433.605469 718.304688 416.1875 718.304688 C 398.769531 718.304688 384.519531 704.054688 384.519531 686.636719 Z M 384.519531 934.597656 C 384.519531 917.183594 398.769531 902.929688 416.1875 902.929688 C 433.605469 902.929688 447.855469 917.183594 447.855469 934.597656 C 447.855469 952.015625 433.605469 966.265625 416.1875 966.265625 C 398.769531 966.265625 384.519531 952.015625 384.519531 934.597656 Z M 384.519531 190.394531 C 384.519531 172.976562 398.769531 158.726562 416.1875 158.726562 C 433.605469 158.726562 447.855469 172.976562 447.855469 190.394531 C 447.855469 207.8125 433.605469 222.0625 416.1875 222.0625 C 398.769531 222.0625 384.519531 207.8125 384.519531 190.394531 Z M 677.136719 438.359375 C 677.136719 420.941406 691.386719 406.691406 708.804688 406.691406 C 726.222656 406.691406 740.472656 420.941406 740.472656 438.359375 C 740.472656 455.773438 726.222656 470.027344 708.804688 470.027344 C 691.386719 470.027344 677.136719 456.09375 677.136719 438.359375 Z M 677.136719 686.636719 C 677.136719 669.21875 691.386719 654.96875 708.804688 654.96875 C 726.222656 654.96875 740.472656 669.21875 740.472656 686.636719 C 740.472656 704.054688 726.222656 718.304688 708.804688 718.304688 C 691.386719 718.304688 677.136719 704.054688 677.136719 686.636719 Z M 677.136719 934.597656 C 677.136719 917.183594 691.386719 902.929688 708.804688 902.929688 C 726.222656 902.929688 740.472656 917.183594 740.472656 934.597656 C 740.472656 952.015625 726.222656 966.265625 708.804688 966.265625 C 691.386719 966.265625 677.136719 952.015625 677.136719 934.597656 Z M 677.136719 190.394531 C 677.136719 172.976562 691.386719 158.726562 708.804688 158.726562 C 726.222656 158.726562 740.472656 172.976562 740.472656 190.394531 C 740.472656 207.8125 726.222656 222.0625 708.804688 222.0625 C 691.386719 222.0625 677.136719 207.8125 677.136719 190.394531 Z M 92.222656 438.359375 C 92.222656 420.941406 106.472656 406.691406 123.890625 406.691406 C 141.308594 406.691406 155.558594 420.941406 155.558594 438.359375 C 155.558594 455.773438 141.308594 470.027344 123.890625 470.027344 C 106.472656 470.027344 92.222656 456.09375 92.222656 438.359375 Z M 92.222656 686.636719 C 92.222656 669.21875 106.472656 654.96875 123.890625 654.96875 C 141.308594 654.96875 155.558594 669.21875 155.558594 686.636719 C 155.558594 704.054688 141.308594 718.304688 123.890625 718.304688 C 106.472656 718.304688 92.222656 704.054688 92.222656 686.636719 Z M 92.222656 934.597656 C 92.222656 917.183594 106.472656 902.929688 123.890625 902.929688 C 141.308594 902.929688 155.558594 917.183594 155.558594 934.597656 C 155.558594 952.015625 141.308594 966.265625 123.890625 966.265625 C 106.472656 966.265625 92.222656 952.015625 92.222656 934.597656 Z M 92.222656 190.394531 C 92.222656 172.976562 106.472656 158.726562 123.890625 158.726562 C 141.308594 158.726562 155.558594 172.976562 155.558594 190.394531 C 155.558594 207.8125 141.308594 222.0625 123.890625 222.0625 C 106.472656 222.0625 92.222656 207.8125 92.222656 190.394531 Z M 969.433594 438.359375 C 969.433594 420.941406 983.683594 406.691406 1001.101562 406.691406 C 1018.519531 406.691406 1032.769531 420.941406 1032.769531 438.359375 C 1032.769531 455.773438 1018.519531 470.027344 1001.101562 470.027344 C 983.683594 470.027344 969.433594 456.09375 969.433594 438.359375 Z M 969.433594 686.636719 C 969.433594 669.21875 983.683594 654.96875 1001.101562 654.96875 C 1018.519531 654.96875 1032.769531 669.21875 1032.769531 686.636719 C 1032.769531 704.054688 1018.519531 718.304688 1001.101562 718.304688 C 983.683594 718.304688 969.433594 704.054688 969.433594 686.636719 Z M 969.433594 934.597656 C 969.433594 917.183594 983.683594 902.929688 1001.101562 902.929688 C 1018.519531 902.929688 1032.769531 917.183594 1032.769531 934.597656 C 1032.769531 952.015625 1018.519531 966.265625 1001.101562 966.265625 C 983.683594 966.265625 969.433594 952.015625 969.433594 934.597656 Z M 969.433594 190.394531 C 969.433594 172.976562 983.683594 158.726562 1001.101562 158.726562 C 1018.519531 158.726562 1032.769531 172.976562 1032.769531 190.394531 C 1032.769531 207.8125 1018.519531 222.0625 1001.101562 222.0625 C 983.683594 222.0625 969.433594 207.8125 969.433594 190.394531 Z M 969.433594 190.394531 " fill-opacity="1" fill-rule="nonzero"/></g></svg>