<svg xmlns="http://www.w3.org/2000/svg" xmlns:xlink="http://www.w3.org/1999/xlink" width="500" zoomAndPan="magnify" viewBox="0 0 375 374.999991" height="500" preserveAspectRatio="xMidYMid meet" version="1.0"><defs><clipPath id="78996b7ec6"><path d="M 0 58.316406 L 359.25 58.316406 L 359.25 268 L 0 268 Z M 0 58.316406 " clip-rule="nonzero"/></clipPath><clipPath id="5d6a0d6145"><path d="M 122 123 L 347 123 L 347 316.316406 L 122 316.316406 Z M 122 123 " clip-rule="nonzero"/></clipPath></defs><g clip-path="url(#78996b7ec6)"><path fill="#5127a4" d="M 115.722656 245.425781 L 128.445312 242.007812 C 129.628906 241.710938 130.8125 241.382812 131.996094 241.019531 C 132.914062 240.757812 133.835938 240.460938 134.757812 240.164062 L 141.070312 238.226562 L 153.691406 234.347656 C 164.148438 230.796875 174.601562 227.148438 184.957031 223.136719 C 189.855469 221.230469 194.753906 219.222656 199.585938 217.121094 C 200.835938 216.5625 202.117188 216.035156 203.367188 215.476562 L 209.515625 212.8125 C 211.554688 211.925781 213.558594 210.90625 215.566406 209.953125 L 227.664062 204.132812 L 239.5625 197.820312 L 242.554688 196.242188 L 245.480469 194.535156 L 251.332031 191.117188 C 266.917969 181.878906 282.039062 171.519531 296.339844 159.585938 C 297.03125 159.027344 297.6875 158.4375 298.378906 157.878906 C 301.269531 155.445312 304.132812 152.980469 306.894531 150.347656 L 312.054688 145.550781 L 317.050781 140.488281 C 320.4375 137.167969 323.5625 133.515625 326.816406 129.964844 C 328.425781 128.191406 329.90625 126.25 331.484375 124.410156 C 333.027344 122.535156 334.574219 120.695312 336.019531 118.691406 C 339.339844 114.382812 342.53125 109.914062 345.554688 105.246094 C 345.554688 105.246094 350.125 108.628906 354.035156 111.65625 C 356.898438 113.890625 359.429688 115.894531 359.460938 116.160156 C 359.460938 116.160156 357.851562 109.222656 357.257812 106.527344 C 354.199219 93.144531 346.210938 58.429688 346.210938 58.429688 L 306.105469 78.320312 L 295.355469 83.644531 C 295.355469 83.644531 298.179688 85.027344 301.4375 86.667969 C 305.941406 88.9375 311.234375 91.699219 310.96875 91.960938 L 308.175781 96.007812 C 307.125 97.78125 305.941406 99.492188 304.789062 101.234375 C 303.605469 102.941406 302.519531 104.71875 301.269531 106.394531 C 300.121094 107.941406 298.96875 109.519531 297.820312 111.0625 C 296.472656 112.871094 295.125 114.648438 293.644531 116.390625 L 289.667969 121.289062 L 285.457031 126.023438 C 282.730469 129.242188 279.738281 132.234375 276.777344 135.257812 C 264.910156 147.324219 251.828125 158.371094 238.050781 168.496094 L 232.855469 172.277344 L 230.261719 174.183594 L 227.597656 175.960938 L 216.878906 183.09375 L 205.898438 189.800781 C 204.058594 190.886719 202.25 192.070312 200.375 193.121094 L 194.753906 196.242188 C 179.828125 204.824219 164.179688 212.1875 148.464844 219.386719 L 136.53125 224.417969 L 131.996094 226.324219 L 130.546875 226.949219 C 128.542969 227.804688 126.570312 228.625 124.53125 229.382812 L 112.402344 233.984375 C 108.359375 235.53125 104.3125 237.109375 100.203125 238.457031 C 67.492188 249.996094 33.960938 259.363281 0 267.1875 C 34.550781 262.851562 69.003906 256.933594 103.066406 248.679688 C 107.273438 247.726562 111.480469 246.578125 115.722656 245.425781 Z M 115.722656 245.425781 " fill-opacity="1" fill-rule="nonzero"/></g><path fill="#ffffff" d="M 96.6875 227.96875 L 96.882812 227.902344 C 100.664062 226.652344 104.414062 225.238281 108.359375 223.726562 L 120.851562 218.992188 C 122.625 218.335938 124.367188 217.644531 126.503906 216.726562 L 131.929688 214.425781 L 144.355469 209.195312 C 159.152344 202.425781 174.800781 195.09375 189.691406 186.511719 L 195.445312 183.324219 C 196.53125 182.730469 197.582031 182.074219 198.632812 181.417969 C 199.324219 180.988281 200.015625 180.5625 200.703125 180.136719 L 211.457031 173.558594 L 223.191406 165.734375 L 224.507812 164.847656 L 232.132812 159.292969 C 239.105469 154.164062 245.710938 148.902344 251.957031 143.578125 C 258.269531 138.1875 264.15625 132.695312 269.613281 127.140625 L 271.058594 125.660156 C 273.457031 123.195312 275.726562 120.859375 277.796875 118.425781 L 277.929688 118.261719 L 281.972656 113.726562 L 285.953125 108.828125 C 287.695312 106.757812 289.335938 104.519531 291.078125 102.152344 C 291.308594 101.859375 291.539062 101.53125 291.769531 101.234375 C 289.140625 98.011719 286.082031 95.21875 282.597656 92.816406 C 282.566406 92.785156 282.53125 92.785156 282.53125 92.785156 C 271.089844 84.992188 256.527344 80.226562 238.148438 79.207031 L 118.648438 79.207031 L 131.503906 93.835938 L 131.898438 211.003906 C 130.21875 211.792969 128.542969 212.582031 126.832031 213.371094 L 111.21875 220.339844 L 95.339844 226.71875 C 92.675781 227.769531 90.046875 228.890625 87.382812 229.875 L 79.328125 232.769531 L 63.21875 238.585938 L 79.558594 233.589844 L 84.09375 232.210938 C 88.371094 230.863281 92.542969 229.449219 96.6875 227.96875 Z M 184.992188 119.117188 L 227.695312 119.117188 C 237.492188 119.117188 245.808594 124.476562 249.691406 132.464844 C 249.164062 132.957031 248.605469 133.484375 248.078125 133.976562 L 241.863281 139.894531 C 231.871094 149.199219 221.21875 157.746094 210.171875 165.734375 L 184.957031 165.734375 L 184.957031 119.117188 Z M 184.992188 119.117188 " fill-opacity="1" fill-rule="nonzero"/><g clip-path="url(#5d6a0d6145)"><path fill="#ffffff" d="M 256.496094 200.8125 L 247.324219 206.171875 L 232.066406 214.257812 L 226.050781 217.152344 L 219.96875 220.078125 C 219.179688 220.441406 218.523438 220.769531 217.867188 221.097656 C 216.417969 221.789062 215.007812 222.476562 213.527344 223.101562 L 207.410156 225.734375 C 199.949219 229.085938 192.421875 232.109375 184.957031 234.9375 C 175.457031 238.523438 166.085938 241.777344 157.011719 244.867188 L 156.75 244.964844 L 137.78125 250.785156 C 135.675781 251.441406 133.804688 252 131.996094 252.460938 L 132.027344 257.917969 L 132.160156 299.539062 L 122.101562 316.566406 L 250.25 316.566406 C 278.027344 316.566406 304.425781 293.425781 312.746094 268.207031 C 315.175781 261.730469 315.507812 254.597656 315.507812 247.792969 C 315.507812 226.785156 307.15625 202.359375 289.007812 189.867188 C 291.640625 187.828125 294.234375 185.722656 296.800781 183.554688 C 298.050781 182.5 299.332031 181.515625 300.546875 180.429688 L 304.132812 177.109375 C 306.53125 174.90625 308.898438 172.671875 311.265625 170.4375 L 318.003906 163.300781 C 319.121094 162.085938 320.273438 160.9375 321.359375 159.71875 C 322.410156 158.46875 323.496094 157.21875 324.515625 155.9375 C 332.929688 145.878906 340.589844 135.03125 346.441406 123.128906 C 345.027344 124.902344 343.550781 126.613281 342.070312 128.355469 C 341.148438 129.539062 340.230469 130.65625 339.308594 131.773438 L 339.175781 131.9375 C 338.617188 132.597656 338.125 133.222656 337.632812 133.8125 C 336.546875 135.128906 335.460938 136.476562 334.210938 137.855469 C 333.457031 138.679688 332.699219 139.535156 331.945312 140.355469 C 329.445312 143.117188 326.882812 145.976562 324.085938 148.738281 L 318.828125 154.03125 L 313.730469 158.765625 C 310.609375 161.757812 307.417969 164.453125 304.328125 167.082031 L 302.785156 168.367188 C 296.207031 173.855469 289.371094 179.082031 282.203125 184.179688 C 274.183594 189.867188 265.632812 195.421875 256.496094 200.8125 Z M 261.03125 243.714844 C 261.03125 256.996094 249.230469 269.917969 235.324219 269.917969 L 184.957031 269.917969 L 184.957031 243.878906 C 188.835938 242.597656 192.683594 241.316406 196.53125 239.96875 L 214.28125 232.933594 C 215.761719 232.339844 217.242188 231.75 218.6875 231.09375 L 223.027344 229.054688 L 231.707031 225.011719 C 235.71875 223.070312 239.695312 221.03125 243.671875 218.929688 C 253.929688 222.707031 261.03125 232.011719 261.03125 243.714844 Z M 261.03125 243.714844 " fill-opacity="1" fill-rule="nonzero"/></g></svg>