<svg xmlns="http://www.w3.org/2000/svg" xmlns:xlink="http://www.w3.org/1999/xlink" width="500" zoomAndPan="magnify" viewBox="0 0 375 374.999991" height="500" preserveAspectRatio="xMidYMid meet" version="1.0"><defs><clipPath id="45646e11d2"><path d="M 3.882812 55.527344 L 371.382812 55.527344 L 371.382812 269 L 3.882812 269 Z M 3.882812 55.527344 " clip-rule="nonzero"/></clipPath><clipPath id="00fdf311b9"><path d="M 128 121 L 358 121 L 358 319.527344 L 128 319.527344 Z M 128 121 " clip-rule="nonzero"/></clipPath></defs><g clip-path="url(#45646e11d2)"><path fill="#3b82f6" d="M 122.105469 246.675781 L 135.105469 243.183594 C 136.3125 242.878906 137.523438 242.542969 138.730469 242.175781 C 139.671875 241.90625 140.613281 241.605469 141.554688 241.300781 L 148 239.320312 L 160.898438 235.355469 C 171.578125 231.730469 182.257812 228 192.839844 223.902344 C 197.84375 221.957031 202.847656 219.90625 207.785156 217.757812 C 209.0625 217.1875 210.371094 216.648438 211.648438 216.078125 L 217.929688 213.359375 C 220.011719 212.449219 222.058594 211.410156 224.109375 210.4375 L 236.46875 204.492188 L 248.625 198.042969 L 251.683594 196.429688 L 260.648438 191.191406 C 276.570312 181.753906 292.019531 171.171875 306.628906 158.980469 C 307.335938 158.410156 308.007812 157.804688 308.710938 157.234375 C 311.667969 154.75 314.589844 152.230469 317.410156 149.542969 L 322.683594 144.640625 L 327.789062 139.46875 C 331.246094 136.078125 334.4375 132.347656 337.761719 128.722656 C 339.410156 126.90625 340.921875 124.925781 342.53125 123.042969 C 344.109375 121.128906 345.691406 119.25 347.167969 117.199219 C 350.558594 112.800781 353.816406 108.234375 356.90625 103.464844 C 356.90625 103.464844 361.574219 106.921875 365.574219 110.011719 C 368.496094 112.296875 371.082031 114.347656 371.113281 114.613281 C 371.113281 114.613281 369.46875 107.527344 368.863281 104.773438 C 365.742188 91.105469 357.578125 55.636719 357.578125 55.636719 L 316.605469 75.957031 L 305.621094 81.398438 C 305.621094 81.398438 308.511719 82.808594 311.835938 84.488281 C 316.4375 86.804688 321.84375 89.625 321.574219 89.894531 L 318.71875 94.027344 C 317.644531 95.839844 316.4375 97.585938 315.261719 99.367188 C 314.050781 101.113281 312.941406 102.925781 311.667969 104.640625 C 310.492188 106.21875 309.316406 107.832031 308.140625 109.410156 C 306.761719 111.257812 305.386719 113.070312 303.875 114.851562 L 299.8125 119.855469 L 295.511719 124.691406 C 292.722656 127.980469 289.667969 131.039062 286.644531 134.128906 C 274.519531 146.453125 261.152344 157.738281 247.082031 168.082031 L 241.773438 171.945312 L 239.121094 173.894531 L 236.402344 175.707031 L 225.453125 182.996094 L 214.234375 189.847656 C 212.351562 190.957031 210.503906 192.164062 208.589844 193.238281 L 202.847656 196.429688 C 187.601562 205.195312 171.613281 212.71875 155.558594 220.074219 L 143.367188 225.214844 L 138.730469 227.160156 L 137.253906 227.800781 C 135.207031 228.671875 133.191406 229.511719 131.109375 230.285156 L 118.714844 234.988281 C 114.582031 236.566406 110.453125 238.179688 106.253906 239.554688 C 72.835938 251.34375 38.578125 260.914062 3.882812 268.910156 C 39.183594 264.476562 74.382812 258.429688 109.175781 250 C 113.476562 249.027344 117.773438 247.851562 122.105469 246.675781 Z M 122.105469 246.675781 " fill-opacity="1" fill-rule="nonzero"/></g><path fill="#ffffff" d="M 102.660156 228.839844 L 102.863281 228.773438 C 106.722656 227.496094 110.554688 226.054688 114.582031 224.507812 L 127.347656 219.671875 C 129.160156 219 130.941406 218.296875 133.125 217.355469 L 138.664062 215.003906 L 151.359375 209.664062 C 166.472656 202.746094 182.460938 195.253906 197.675781 186.488281 L 203.554688 183.230469 C 204.660156 182.625 205.734375 181.953125 206.8125 181.28125 C 207.515625 180.847656 208.222656 180.410156 208.925781 179.972656 L 219.910156 173.257812 L 231.898438 165.261719 L 233.242188 164.355469 L 241.035156 158.679688 C 248.15625 153.441406 254.90625 148.066406 261.289062 142.625 C 267.734375 137.117188 273.75 131.507812 279.324219 125.832031 L 280.800781 124.320312 C 283.253906 121.800781 285.570312 119.417969 287.6875 116.933594 L 287.820312 116.765625 L 291.953125 112.128906 L 296.015625 107.125 C 297.796875 105.007812 299.476562 102.726562 301.253906 100.308594 C 301.492188 100.003906 301.726562 99.667969 301.960938 99.367188 C 299.273438 96.074219 296.148438 93.21875 292.589844 90.769531 C 292.554688 90.734375 292.523438 90.734375 292.523438 90.734375 C 280.835938 82.773438 265.957031 77.90625 247.179688 76.863281 L 125.097656 76.863281 L 138.226562 91.808594 L 138.632812 211.511719 C 136.917969 212.316406 135.207031 213.121094 133.457031 213.929688 L 117.503906 221.050781 L 101.285156 227.566406 C 98.5625 228.640625 95.875 229.78125 93.15625 230.789062 L 84.925781 233.746094 L 68.46875 239.6875 L 85.164062 234.585938 L 89.796875 233.171875 C 94.164062 231.796875 98.429688 230.351562 102.660156 228.839844 Z M 192.871094 117.636719 L 236.5 117.636719 C 246.511719 117.636719 255.007812 123.113281 258.96875 131.273438 C 258.433594 131.777344 257.863281 132.316406 257.324219 132.820312 L 250.976562 138.863281 C 240.765625 148.367188 229.882812 157.101562 218.601562 165.261719 L 192.839844 165.261719 L 192.839844 117.636719 Z M 192.871094 117.636719 " fill-opacity="1" fill-rule="nonzero"/><g clip-path="url(#00fdf311b9)"><path fill="#ffffff" d="M 265.921875 201.097656 L 256.550781 206.574219 L 240.96875 214.835938 L 234.820312 217.792969 L 228.609375 220.78125 C 227.800781 221.148438 227.128906 221.484375 226.457031 221.820312 C 224.980469 222.527344 223.535156 223.230469 222.027344 223.871094 L 215.777344 226.558594 C 208.15625 229.984375 200.464844 233.074219 192.839844 235.960938 C 183.132812 239.621094 173.5625 242.945312 164.289062 246.105469 L 164.023438 246.207031 L 144.644531 252.148438 C 142.492188 252.820312 140.578125 253.390625 138.730469 253.863281 L 138.765625 259.4375 L 138.898438 301.957031 L 128.621094 319.355469 L 259.542969 319.355469 C 287.921875 319.355469 314.890625 295.710938 323.386719 269.949219 C 325.875 263.335938 326.210938 256.046875 326.210938 249.09375 C 326.210938 227.632812 317.679688 202.675781 299.140625 189.914062 C 301.824219 187.832031 304.480469 185.683594 307.097656 183.464844 C 308.375 182.390625 309.683594 181.382812 310.929688 180.277344 L 314.589844 176.882812 C 317.039062 174.632812 319.457031 172.347656 321.878906 170.066406 L 328.761719 162.777344 C 329.902344 161.535156 331.078125 160.359375 332.1875 159.117188 C 333.261719 157.839844 334.371094 156.5625 335.414062 155.253906 C 344.011719 144.976562 351.835938 133.894531 357.8125 121.734375 C 356.371094 123.546875 354.859375 125.296875 353.347656 127.074219 C 352.40625 128.285156 351.464844 129.425781 350.527344 130.566406 L 350.390625 130.734375 C 349.820312 131.40625 349.316406 132.046875 348.8125 132.652344 C 347.703125 133.992188 346.597656 135.371094 345.320312 136.78125 C 344.546875 137.621094 343.773438 138.496094 343.003906 139.335938 C 340.449219 142.15625 337.832031 145.078125 334.976562 147.898438 L 329.601562 153.304688 L 324.394531 158.140625 C 321.207031 161.199219 317.949219 163.953125 314.789062 166.640625 L 313.210938 167.949219 C 306.496094 173.558594 299.507812 178.898438 292.1875 184.105469 C 283.992188 189.914062 275.257812 195.589844 265.921875 201.097656 Z M 270.558594 244.929688 C 270.558594 258.496094 258.5 271.695312 244.292969 271.695312 L 192.839844 271.695312 L 192.839844 245.097656 C 196.800781 243.785156 200.730469 242.476562 204.660156 241.101562 L 222.796875 233.914062 C 224.308594 233.308594 225.820312 232.703125 227.296875 232.03125 L 231.730469 229.949219 L 240.597656 225.816406 C 244.695312 223.835938 248.761719 221.753906 252.824219 219.605469 C 263.304688 223.46875 270.558594 232.972656 270.558594 244.929688 Z M 270.558594 244.929688 " fill-opacity="1" fill-rule="nonzero"/></g></svg>